HIERARCHY
ROOT simHips
{
  OFFSET 0.88408 93.1471 -0.979595
  CHANNELS 6 Xposition Yposition Zposition Zrotation Xrotation Yrotation
  JOINT simSpine
  {
    OFFSET -0.000355721 21.3001 -0.016921
    CHANNELS 3 Zrotation Xrotation Yrotation
    JOINT simLeftArm
    {
      OFFSET 13.5181 21.3012 0
      CHANNELS 3 Zrotation Xrotation Yrotation
      JOINT simLeftForeArm
      {
        OFFSET 24.5783 0 0
        CHANNELS 3 Zrotation Xrotation Yrotation
        JOINT simLeftHand
        {
          OFFSET 24.5783 0 0
          CHANNELS 3 Zrotation Xrotation Yrotation
          End Site
          {
            OFFSET 7.32568 1.52588e-05 0.0169305
          }
        }
      }
    }
    JOINT simHead
    {
      OFFSET 0 27.4458 -0.00489235
      CHANNELS 3 Zrotation Xrotation Yrotation
      End Site
      {
        OFFSET 0 0 0
      }
    }
    JOINT simRightArm
    {
      OFFSET -13.5174 21.3012 0
      CHANNELS 3 Zrotation Xrotation Yrotation
      JOINT simRightForeArm
      {
        OFFSET -24.5783 0 0
        CHANNELS 3 Zrotation Xrotation Yrotation
        JOINT simRightHand
        {
          OFFSET -24.5783 0 0
          CHANNELS 3 Zrotation Xrotation Yrotation
          End Site
          {
            OFFSET -7.32568 1.52588e-05 0.0169305
          }
        }
      }
    }
  }
  JOINT simRightUpLeg
  {
    OFFSET -8.44614 -9.41038 0.835684
    CHANNELS 3 Zrotation Xrotation Yrotation
    JOINT simRightLeg
    {
      OFFSET 0 -40.9639 0
      CHANNELS 3 Zrotation Xrotation Yrotation
      JOINT simRightFoot
      {
        OFFSET 0 -40.9639 0
        CHANNELS 3 Zrotation Xrotation Yrotation
        End Site
        {
          OFFSET 0.50614 -9.67405 14.6709
        }
      }
    }
  }
  JOINT simLeftUpLeg
  {
    OFFSET 8.44614 -9.41038 0.835684
    CHANNELS 3 Zrotation Xrotation Yrotation
    JOINT simLeftLeg
    {
      OFFSET 0 -40.9639 0
      CHANNELS 3 Zrotation Xrotation Yrotation
      JOINT simLeftFoot
      {
        OFFSET 0 -40.9639 0
        CHANNELS 3 Zrotation Xrotation Yrotation
        End Site
        {
          OFFSET -0.50614 -9.67405 14.6709
        }
      }
    }
  }
}
MOTION
Frames:	26
Frame Time:	0.0333333
0.88408 93.1471 -0.979595 -3.0621 -3.22443 -43.2545 -1.07461 5.73238 4.7417 -70.9272 -17.9602 17.6894 5.1848 4.81927 -48.0113 18.8196 15.6443 -4.60009 -4.84465 11.7846 38.627 64.3002 15.3242 -24.86 6.47193 -1.18592 42.2361 11.3675 8.87202 10.7883 -13.7846 -1.60459 -15.3423 -2.13811 36.9638 -7.5701 18.7653 -24.1838 3.41168 15.1924 -23.94 12.356 0.181636 37.774 -15.4543 -7.14955 -9.16204 0.707171 
1.11166 92.3728 -2.3801 -3.22904 -0.201505 -39.028 -0.615518 5.89136 4.19366 -63.7915 -7.41263 7.80209 2.22223 6.0309 -29.4703 15.7622 11.2274 -10.1702 -2.39346 10.8334 31.8439 68.0732 20.4414 -12.6945 0.778287 2.38749 37.2822 -0.0425175 11.835 7.44026 -12.3413 -5.57763 -19.2253 -1.84559 42.4641 -2.71758 12.4779 -26.3346 1.49927 17.0781 -30.3465 12.3154 2.30373 41.5792 -16.9203 -9.59034 -9.55854 0.683265 
1.5621 90.8491 -3.25741 -3.78109 5.37766 -35.5883 -0.167631 5.93782 3.75396 -55.2282 -1.27926 5.82665 -0.788024 4.41401 -20.8947 13.1518 4.7945 -11.6653 0.260623 8.81181 25.4367 63.7306 23.2585 2.35872 -2.04753 4.25802 28.8031 -5.21247 9.77048 3.40457 -9.40374 -13.2673 -22.1655 -3.67279 49.9669 2.23788 7.29611 -26.5684 -0.309572 22.2164 -40.0778 15.1531 4.11647 49.073 -17.9346 -8.53919 -9.17802 0.553473 
1.77488 88.7192 -3.73746 -2.32249 12.7193 -33.437 -0.151907 5.56488 3.51062 -47.3581 1.71975 14.0338 -5.06533 4.22847 -23.2145 11.853 -1.25219 -7.41608 2.70912 3.4546 19.6867 54.1843 20.7427 11.7112 -2.71911 5.02913 23.9817 -4.79348 6.26874 -4.07175 -7.75371 -24.7043 -23.2452 -5.85122 58.3765 6.18901 2.69558 -26.28 -2.02058 29.1515 -51.6846 20.6133 5.69723 54.4586 -19.7976 -6.93579 -8.74679 0.448648 
1.82115 85.7509 -3.6889 0.991219 22.6946 -32.6971 -0.338566 4.75047 3.55274 -41.7138 3.25894 31.1152 -9.43389 8.15736 -30.9377 11.4646 -3.83194 0.600597 4.03565 -4.90069 15.2469 43.5202 13.8231 9.41019 -3.45729 7.22009 23.7874 -1.32259 7.23129 -12.1233 -6.84555 -39.4668 -22.8355 -6.33469 66.5047 6.62173 1.04783 -26.7784 -3.25027 44.7399 -65.422 34.8536 7.45764 60.5341 -21.6764 -5.28687 -9.75768 0.240478 
1.82503 81.9267 -3.72423 5.69003 33.3646 -33.4107 -0.583775 3.92034 3.72448 -40.1677 2.02776 50.4897 -10.7425 12.3292 -34.3162 11.4376 -1.71965 6.76364 3.27657 -12.3948 11.8512 33.3042 5.40959 -3.67108 -5.8541 12.3138 23.3762 0.538527 15.2036 -16.5756 -7.27511 -55.4282 -22.6714 -6.1119 74.4172 4.76386 2.65317 -28.9629 -2.86833 89.3525 -74.5117 78.4166 8.95469 66.6611 -23.7014 -4.31826 -10.6836 0.156838 
1.73155 77.7978 -4.18117 11.1084 41.6711 -34.9853 -0.728255 3.60224 3.76436 -40.854 -3.63394 65.6131 -8.36084 11.1406 -28.1229 12.379 3.03325 7.60243 0.084325 -14.9899 8.40691 25.0547 0.431003 -22.0999 -9.22903 18.7653 17.9297 -2.73842 25.4065 -13.775 -13.2393 -69.1497 -27.3348 -5.33272 82.4921 2.52007 3.23571 -32.0183 -2.55348 136.905 -69.9761 126.014 9.43569 72.0395 -25.2453 -3.66349 -10.9164 0.124638 
1.68013 73.4302 -5.38916 12.8999 44.3067 -33.6831 -0.704888 3.98409 3.59964 -40.7512 -11.0412 75.5082 -4.00435 6.5373 -15.5992 14.2187 6.48925 4.7752 -3.73711 -11.8132 5.13298 22.0406 1.81844 -40.0638 -11.6874 23.7772 8.4362 -8.26012 30.5617 -7.5417 -29.3387 -75.3517 -41.9763 168.61 88.4804 -170.395 3.73508 -36.2896 -2.15278 154.225 -63.7467 144.198 14.7262 77.9885 -31.7355 -2.74422 -11.1032 0.173402 
1.97386 69.0547 -6.9336 12.5611 42.6218 -32.6547 -0.60986 4.80725 3.43222 -40.4196 -17.3239 83.1203 -2.0564 1.72597 -6.00659 15.3283 5.9718 2.9971 -4.9923 -6.43396 3.10787 25.972 6.1295 -56.231 -12.7344 24.4963 2.69386 -9.60368 30.0026 -6.95734 -43.3509 -77.1494 -55.3661 -176.424 79.301 174.387 3.45236 -40.8397 -1.77501 158.692 -59.4954 149.715 31.1898 83.9621 -50.0208 -2.72035 -11.4758 0.262171 
1.99842 65.5811 -8.12701 10.6925 39.1404 -30.4309 -0.638499 5.59646 3.23415 -42.0159 -22.246 89.5756 -4.01503 -2.83327 -6.05811 14.2805 2.04032 5.41962 -2.3368 -5.04102 1.87986 34.3926 7.07513 -70.619 -13.4271 20.5229 6.36857 -9.41961 25.216 -10.3323 -49.3044 -75.4638 -60.9741 -175.583 71.8057 174.009 3.11522 -43.673 -1.46411 159.69 -58.1151 151.924 91.9809 86.5269 -112.833 -2.62399 -11.732 0.368212 
1.57888 63.9986 -8.32565 8.96739 36.8708 -27.0182 -0.801061 5.924 2.96253 -49.5159 -24.6513 88.9625 -7.14217 -4.84391 -11.0559 11.5939 -2.03761 9.22745 2.05706 -11.4498 0.780598 45.5534 2.69279 -78.0086 -13.2975 15.6252 14.5371 -13.639 17.9419 -13.4062 -51.1371 -72.4836 -63.4405 -174.821 67.83 172.618 3.663 -43.4324 -0.99322 161.666 -58.873 155.142 123.922 85.2287 -146.342 -1.97424 -12.0884 0.469942 
0.958686 64.5267 -7.88667 7.48759 34.4552 -25.3475 -0.911227 5.57654 2.84458 -62.5694 -22.3525 77.7082 -8.59478 -2.20418 -14.699 9.14513 -1.17887 9.48953 4.9981 -22.889 0.544288 60.127 -0.761001 -70.669 -11.9209 15.3258 19.7909 -20.3874 12.075 -19.9095 -44.2076 -69.8093 -57.373 -172.935 67.5049 169.486 4.74484 -42.0084 -0.474528 161.345 -62.4252 154.817 121.528 84.2 -143.983 -2.4264 -12.8576 0.462566 
0.402498 66.4918 -7.29647 5.2066 29.9287 -23.2511 -0.863887 4.65054 2.95103 -70.8502 -15.1415 58.3226 -8.4325 4.71639 -16.1914 7.18704 6.38883 6.27433 5.72082 -32.2949 1.32722 72.4406 6.16129 -49.1024 -10.2837 21.3691 22.2256 -20.5912 10.8029 -29.6614 -31.7288 -64.192 -45.3343 -169.001 70.1692 164.113 5.58192 -40.9735 -0.191684 159.403 -70.2413 152.364 106.277 83.3539 -127.51 -3.71281 -13.4561 0.383089 
0.210058 68.7342 -7.02122 2.47202 22.4747 -21.8124 -0.620745 3.47107 3.3089 -67.0475 -6.584 34.1856 -8.59071 12.0622 -16.5486 4.70744 16.1072 6.05593 4.81373 -33.7899 2.12146 74.268 20.5176 -22.6845 -10.3918 30.7707 28.7409 -7.80148 10.2914 -36.0011 -22.9909 -55.0681 -36.3302 -162.95 73.004 157.537 5.61658 -39.6162 -0.114495 142.539 -80.5993 136.088 93.7588 81.7128 -113.575 -3.9998 -14.6523 0.539748 
0.191305 70.1543 -7.89864 0.582044 14.2209 -22.0157 -0.519537 2.15153 3.65366 -61.2875 2.66227 1.75071 -10.4308 7.35859 -16.298 4.5028 8.32149 0.15445 5.82078 -32.6459 2.17226 62.9135 33.3866 15.3427 -12.1946 31.0463 31.9345 3.08916 -5.29503 -17.7867 -19.8954 -46.3459 -32.7292 -156.893 74.459 150.65 4.291 -38.9616 -0.216197 61.6144 -83.3682 55.8365 84.0612 81.0901 -102.734 -5.28495 -15.5173 0.135787 
0.356352 71.1405 -9.54915 -1.79646 3.76724 -21.3143 -0.254175 1.51768 3.51988 -47.581 4.81628 -25.5123 -13.8275 -0.344398 -37.2117 16.7793 75.2661 -21.9193 9.79045 -37.2275 4.9649 42.1382 30.4124 61.0019 -17.8384 31.5332 30.0966 -3.71037 -11.3723 0.224708 -18.3957 -34.7059 -29.9271 -150.131 75.7738 143.353 3.55308 -41.4331 0.245402 15.3559 -74.0881 11.0391 76.4388 79.7658 -91.9486 -6.41308 -15.6046 0.0878477 
0.41614 72.2092 -10.1457 -3.31457 -2.79828 -19.6727 -0.124352 0.973273 3.06448 -29.8953 -2.418 -49.2548 -3.37167 24.3451 -53.6874 8.50299 4.20086 8.51191 12.7875 -42.3819 5.56883 27.2158 11.6154 75.6185 -12.7623 10.9485 52.3968 -20.0096 -7.06241 -1.22632 -20.5495 -24.6104 -32.0936 -141.707 78.0956 137.446 1.55146 -43.7338 0.343429 4.57632 -66.456 1.18402 67.5511 79.0999 -80.3169 -6.63758 -14.46 0.1416 
-0.154012 74.833 -9.25748 -4.91614 -7.10516 -17.805 -0.0836345 -0.113511 2.68834 -15.5868 -19.2185 -62.9786 -9.88642 13.0156 -52.8758 22.0263 -9.64618 -2.91109 14.4662 -48.4871 4.86576 23.0674 -7.87073 73.8664 -2.15292 10.7646 55.9982 -38.8016 -3.91001 -11.0863 -21.0388 -14.4799 -34.3438 -113.086 82.4049 111.104 -0.274784 -42.3922 0.431151 1.69676 -58.6413 -0.98413 54.1403 77.1684 -65.198 -6.02292 -12.1714 0.445999 
-1.07454 80.4099 -6.41057 -6.77098 -11.5907 -17.0208 0.181759 -0.850492 2.16756 -2.11493 -30.5312 -60.4758 -10.0969 -16.2043 -59.3626 13.7624 14.2845 3.57308 18.56 -54.7763 11.2746 13.2269 -30.7824 65.2502 -0.32964 -14.7401 56.6805 -43.8848 -8.55703 -20.0247 -18.2877 -2.46001 -33.6638 -35.7948 77.6442 36.9179 1.72155 -32.5874 1.49481 2.16934 -46.4669 0.456962 37.826 71.7294 -49.432 -2.85202 -9.38436 0.327028 
-2.05218 88.1418 -2.71447 -7.45755 -16.999 -17.9822 0.399122 -1.36278 1.86665 25.606 -41.1746 -42.5602 -11.2069 -37.7838 -56.8058 6.66122 -5.72753 -0.502785 20.4321 -57.7726 13.1012 -5.98455 -46.8683 49.4905 -4.24122 -28.8629 42.1321 -45.2186 -10.3788 -26.1677 -13.387 11.446 -29.3814 -14.3168 58.7868 14.0444 2.72358 -18.4646 2.45109 2.82014 -31.241 4.73549 24.8418 60.2747 -37.1262 -3.59941 -1.35883 1.2547 
-2.42279 97.1902 0.139143 -6.92649 -22.9912 -18.1181 0.0582199 -2.02518 1.5128 52.4164 -44.9462 -15.1371 -14.3737 -44.7578 -47.3722 7.66704 -15.6208 -8.78914 16.2395 -52.4724 9.01552 -31.5098 -55.8826 29.6968 -0.986388 -33.3793 24.6419 -45.6427 -18.6424 -24.5491 -11.4252 21.9493 -20.9246 -8.01925 40.7734 4.79217 10.2803 5.59614 0.820719 2.32972 -15.0446 13.0575 17.4138 40.3846 -36.819 -12.0158 20.5088 6.53203 
-2.79921 105.97 0.942258 -7.50312 -27.3164 -17.8355 -0.216011 -2.51943 0.810248 64.7172 -43.7531 0.677107 -16.7883 -48.6813 -43.3661 7.81312 -20.9595 -7.09536 11.8714 -50.7821 2.82356 -45.6633 -53.5119 17.8255 -1.00483 -31.7714 14.7697 -41.8547 -22.3648 -16.5466 -12.0285 17.4993 -13.4458 -8.23012 48.7197 5.39815 8.90307 14.7566 2.54036 3.45169 -4.66953 8.73473 6.62688 30.0894 -19.8259 -14.1559 36.3348 8.25613 
-2.80908 113.003 0.0741954 -9.14488 -33.4425 -18.6477 -0.304192 -2.20884 0.9801 62.6437 -40.5516 2.18647 -14.4719 -44.1743 -37.5846 13.6044 -21.99 -1.56908 12.3022 -47.8646 1.94628 -39.6576 -50.5078 17.1839 0.968893 -24.9994 25.29 -41.4946 -17.3433 -22.4553 -11.5108 4.6487 -10.5875 -19.2074 73.1927 11.6407 4.79121 15.1024 4.13004 3.96765 -8.37321 8.26032 7.55541 49.0168 -14.9627 -12.772 33.9686 7.03707 
-2.59337 118.81 -1.2924 -11.8383 -41.7566 -20.1318 -0.458953 -1.23481 1.26142 55.2743 -35.0145 -4.47323 -14.0671 -37.4458 -30.164 14.3914 -22.0264 -1.84826 13.7139 -48.222 2.46387 -26.7741 -45.6748 27.1036 1.52468 -20.8812 24.7702 -39.661 -18.679 -23.1387 -11.6217 -6.86001 -10.7102 -152.495 82.1629 141.344 0.0253869 13.0215 5.26328 5.51749 -15.0902 8.03413 9.66899 74.0022 -18.5566 -12.1008 28.3368 5.81932 
-2.30916 121.741 -2.13349 -15.0046 -50.0761 -21.0504 -0.658471 0.0179499 1.1987 40.642 -29.9698 -14.7152 -15.8411 -27.2824 -28.9342 14.4781 -20.0697 -3.0555 13.2881 -49.4794 1.042 -14.8017 -37.9516 35.8837 2.43972 -12.6936 25.6311 -34.0157 -19.0219 -17.8313 -12.4199 -22.4433 -13.6311 -175.261 65.0917 162.23 -3.24544 5.4832 5.76176 7.58526 -26.4362 8.85537 166.298 81.8128 -173.374 -8.56634 21.3804 4.06769 
-2.30098 122.835 -2.7768 -18.6717 -59.1355 -22.6021 -0.931431 1.39899 0.711455 24.3387 -22.8038 -24.8215 -17.6245 -16.9037 -29.6979 17.3981 -18.2426 -4.1391 12.8775 -52.0063 -1.42241 -3.86766 -28.9709 44.4651 3.93653 -6.19975 27.4263 -26.6206 -19.9906 -14.1135 -14.0436 -42.2934 -17.5666 -176.517 59.8037 164.26 -4.19694 4.29135 5.79312 10.405 -41.5481 10.494 177.215 69.5618 174.738 -5.64608 18.2759 3.22953 
